<?xml version="1.0" encoding="utf-8"?>
<!-- Generator: Adobe Illustrator 22.0.1, SVG Export Plug-In . SVG Version: 6.00 Build 0)  -->
<svg version="1.1" id="apple" xmlns="http://www.w3.org/2000/svg" xmlns:xlink="http://www.w3.org/1999/xlink" x="0px" y="0px"
	 viewBox="0 0 62.7 59.9" style="enable-background:new 0 0 62.7 59.9;" xml:space="preserve">
<style type="text/css">
	.st0{fill:#FF1212;stroke:#6B0000;stroke-width:0.5;stroke-miterlimit:10;}
	.st1{fill:#2D1803;stroke:#140A00;stroke-width:0.5;stroke-miterlimit:10;}
	.st2{fill:#F45151;}
</style>
<g id="main-apple">
	<path id="body_1_" class="st0" d="M29.5,20.5c0,0,10-13,19-6s9,7,9,16s-11,24-13,24s-6-6-8-3s-3,6-6,3c-2.2-2.2-1-1-4,1s-7-2-12-9
		s-11-17-7-22S14.5,12.5,29.5,20.5z"/>
	<path id="stem" class="st1" d="M29.5,20.5c0,0-4-13-9-10s-3-6,0-5S32.5,16.5,29.5,20.5z"/>
</g>
<path id="shiney" class="st2" d="M16.5,20.5c0,0-8,4-5,12s7,13,8,9s-4-7-3-11S22.5,23.5,16.5,20.5z"/>
</svg>
