<?xml version="1.0" encoding="utf-8"?>
<!-- Generator: Adobe Illustrator 22.0.1, SVG Export Plug-In . SVG Version: 6.00 Build 0)  -->
<svg version="1.1" id="avocado_1_" xmlns="http://www.w3.org/2000/svg" xmlns:xlink="http://www.w3.org/1999/xlink" x="0px" y="0px"
	 viewBox="0 0 53.7 71.9" style="enable-background:new 0 0 53.7 71.9;" xml:space="preserve">
<style type="text/css">
	.st0{fill:#010C00;stroke:#092100;stroke-width:0.5;stroke-miterlimit:10;}
	.st1{fill:#C9EF92;stroke:#4D8951;stroke-width:0.5;stroke-miterlimit:10;}
	.st2{fill:#3D1900;stroke:#1E0A00;stroke-width:0.5;stroke-miterlimit:10;}
	.st3{opacity:0.4;fill:#F9F9F9;stroke:#442701;stroke-width:0.5;stroke-miterlimit:10;enable-background:new    ;}
</style>
<g id="main-avocado">
	<path id="skin-avo" class="st0" d="M21,6.3c0,0-8.9,3.2-10,10.5c-1.1,7.4,1.1,8.4,0,13.7s-3.3,8.4-3.3,13.7s0,12.7,5.5,16.9
		c5.5,4.2,16.6,6.3,22.1,4.2c5.5-2.1,14.4-9.5,14.4-12.7s2.2-10.5-3.3-16.9s-5.5-4.2-7.7-12.7c-2.2-8.4-1.1-9.5-6.6-13.7
		S21,6.3,21,6.3z"/>
	<path id="flesh-avo" class="st1" d="M21.7,7.7c0,0-8,3-9,10s1,8,0,13s-3,8-3,13s0,12,5,16s15,6,20,4s13-9,13-12s2-10-3-16
		s-5-4-7-12s-1-9-6-13S21.7,7.7,21.7,7.7z"/>
	<circle id="seed-avo" class="st2" cx="27.7" cy="44.7" r="13"/>
</g>
<g id="detail-avo">
	<path id="shiney_1_" class="st3" d="M19.7,36.7c0,0-3,3-3,7s3,11,5,11s4-2,2-3s-4-5-4-7s2-4,2-5S21.7,36.7,19.7,36.7z"/>
	<path id="shiney_2_" class="st3" d="M22.8,41.6c0,0-1.4,1.4-1.4,3.2s1.4,5,2.3,5c0.9,0,1.8-0.9,0.9-1.4c-0.9-0.5-1.8-2.3-1.8-3.2
		s0.9-1.8,0.9-2.3S23.7,41.6,22.8,41.6z"/>
</g>
</svg>
