<?xml version="1.0" encoding="utf-8"?>
<!-- Generator: Adobe Illustrator 22.0.1, SVG Export Plug-In . SVG Version: 6.00 Build 0)  -->
<svg version="1.1" id="eggplant_1_" xmlns="http://www.w3.org/2000/svg" xmlns:xlink="http://www.w3.org/1999/xlink" x="0px"
	 y="0px" viewBox="0 0 116.7 124.9" style="enable-background:new 0 0 116.7 124.9;" xml:space="preserve">
<style type="text/css">
	.st13{fill:#470382;stroke:#240242;stroke-width:0.5;stroke-miterlimit:10;}
	.st14{fill:#034706;stroke:#154401;stroke-width:0.5;stroke-miterlimit:10;}
	.st15{fill:#B57CF7;stroke:#970AEA;stroke-width:0.5;stroke-miterlimit:10;}

	@media screen and (max-width: 400px){
		#shiney-ep{
		display: none;
		}
	}
</style>
<g id="main-ep">
	<path id="body_2_" class="st13" d="M45.5,36.5c0,0-8,2-7,19s-1,34,23,38s27-19,19-27s-14-10-14-12s-1-13-5-16S45.5,36.5,45.5,36.5z"
		/>
	<path id="stem_2_" class="st14" d="M51.5,26.5l-3,1l-1,6c0,0-12,6-11,11s1,5,1,5s6-2,7-6s1-4,1-4l0,0c0,0,0,7,4,10c0,0,5-3,5-8
		c0,0,3,6,8,7s5,0,5,0s1-8-3-10s-13-4-13-4S50.5,27.5,51.5,26.5z"/>
</g>
<path id="shiney-ep" class="st15" d="M70.5,65.5c0,0,6,6,4,11s-6,5-6,8s3,3,3,3s8-3,8-8s-2-15-5-15S70.5,65.5,70.5,65.5z"/>
</svg>
