<?xml version="1.0" encoding="utf-8"?>
<!-- Generator: Adobe Illustrator 22.0.1, SVG Export Plug-In . SVG Version: 6.00 Build 0)  -->
<svg version="1.1" id="eggplant_1_" xmlns="http://www.w3.org/2000/svg" xmlns:xlink="http://www.w3.org/1999/xlink" x="0px"
	 y="0px" viewBox="0 0 60.7 79.9" style="enable-background:new 0 0 60.7 79.9;" xml:space="preserve">
<style type="text/css">
	.st0{fill:#3B1B93;}
	.st1{fill:#10470E;}
	.st2{fill:#E1BFF7;}
</style>
<g id="main-ep">
	<path id="body_2_" class="st0" d="M16.5,15.5c0,0-8,2-7,19s-1,34,23,38s27-19,19-27s-14-10-14-12s-1-13-5-16S16.5,15.5,16.5,15.5z"
		/>
	<path id="stem_2_" class="st1" d="M22.5,5.5l-3,1l-1,6c0,0-12,6-11,11s1,5,1,5s6-2,7-6s1-4,1-4l0,0c0,0,0,7,4,10c0,0,5-3,5-8
		c0,0,3,6,8,7s5,0,5,0s1-8-3-10s-13-4-13-4S21.5,6.5,22.5,5.5z"/>
</g>
<path id="shiney-ep" class="st2" d="M41.5,44.5c0,0,6,6,4,11s-6,5-6,8s3,3,3,3s8-3,8-8s-2-15-5-15S41.5,44.5,41.5,44.5z"/>
</svg>
