<?xml version="1.0" encoding="utf-8"?>
<!-- Generator: Adobe Illustrator 22.0.1, SVG Export Plug-In . SVG Version: 6.00 Build 0)  -->
<svg version="1.1" id="onion" xmlns="http://www.w3.org/2000/svg" xmlns:xlink="http://www.w3.org/1999/xlink" x="0px" y="0px"
	 viewBox="0 0 66.7 88.9" style="enable-background:new 0 0 66.7 88.9;" xml:space="preserve">
<style type="text/css">
	.st0{fill:#87032C;stroke:#140007;stroke-width:0.5;stroke-miterlimit:10;}
</style>
<g id="main-onion">
	<path id="body_4_" class="st0" d="M60.5,56.7c0,14.9-12.1,27-27,27s-27-12.1-27-27c0-7.4,3-14.1,7.8-19c0.5-0.5,0.9-0.9,1.4-1.3
		c0.6-0.4,1.2-0.9,1.9-1.5l0,0c1.9-1.8,3.9-4.4,4.9-8.2c2-8,1-16,1-16l5-2c0,0,0,10,3,14c3,4,9,6,13,9c0.4,0.3,0.8,0.6,1.3,1
		C54.5,37.1,60.5,46.2,60.5,56.7z"/>
</g>
<g id="detail-onion">
	<path class="st0" d="M15.7,36.4c-0.5,0.4-0.9,0.8-1.4,1.3h-0.8C13.5,37.7,14.4,37.3,15.7,36.4z"/>
	<path class="st0" d="M20.5,37.7c0,0-7,5-8,9s-3,14-1,17s5,11,10,14s7,6,9,6"/>
	<path class="st0" d="M24.5,38.7c0,0-7,8-6,15s3,18,8,22s8.8,8,8.8,8"/>
	<path class="st0" d="M29.5,38.7c0,0-2,13-1,19s8,26,8,26"/>
	<path class="st0" d="M33.5,37.7c0,0,5,8,6,15s3,26,3,28"/>
	<path class="st0" d="M37.5,36.7c0,0,10,4,11,10s7,19,5,23s-2.3,7.2-2.3,7.2"/>
	<path class="st0" d="M44.5,34.7c0,0,7,4,9,8s5,14,5,17S58.2,68,58.2,68"/>
</g>
</svg>
