<svg id="searchGlass" xmlns="http://www.w3.org/2000/svg" viewBox="0 0 224 224"><defs><style>.cls-1{fill:#fff;stroke:#ccc;stroke-miterlimit:10;stroke-width:8px;}</style></defs><title>searchGlass</title><g id="mainGlass"><circle class="cls-1" cx="112" cy="112" r="108"/><circle class="cls-1" cx="112" cy="112" r="108"/><circle class="cls-1" cx="108.35" cy="100.15" r="34.68" transform="translate(-71.08 85.27) rotate(-45)"/><path class="cls-1" d="M204.45,182.33a10,10,0,0,1-.06,14.08h0a10,10,0,0,1-14.08.06l-62.73-62.73c-4.24-4.24,3.31-3.31,7.18-7.18h0c3.87-3.87,2.72-11.2,7-7Z" transform="translate(-32 -20.67)"/><path class="cls-1" d="M141.72,147.89l-14.14-14.14c-4.24-4.24,3.31-3.31,7.18-7.18h0c3.87-3.87,2.72-11.2,7-7l14.14,14.14Z" transform="translate(-32 -20.67)"/></g><path id="detail" class="cls-1" d="M92.82,115.67a22,22,0,0,1,0-31" transform="translate(-32 -20.67)"/></svg>