<?xml version="1.0" encoding="utf-8"?>
<!-- Generator: Adobe Illustrator 22.0.1, SVG Export Plug-In . SVG Version: 6.00 Build 0)  -->
<svg version="1.1" id="tomato_1_" xmlns="http://www.w3.org/2000/svg" xmlns:xlink="http://www.w3.org/1999/xlink" x="0px" y="0px"
	 viewBox="0 0 116.7 124.9" style="enable-background:new 0 0 116.7 124.9;" xml:space="preserve">
<style type="text/css">
	.st0{fill:#D80505;stroke:#140007;stroke-width:0.5;stroke-miterlimit:10;}
	.st1{fill:#177F0E;stroke:#012805;stroke-width:0.5;stroke-miterlimit:10;}
	.st2{fill:#B77641;stroke:#012805;stroke-width:0.5;stroke-miterlimit:10;}
</style>
<g id="main-tomato">
	<circle id="body-tomato" class="st0" cx="58.7" cy="63.7" r="28"/>
</g>
<g id="detail-tomato">
	<path id="stem_3_" class="st1" d="M51.9,36.5c0,0-8.8,1.8-8.5,3.5c0,0,2.3-0.3,5.3-0.3s-1,2,0,4c0,0,3-2,5-3s2,3,2,3s0,0,2-2
		s6,2,6,2s1-5-1-5c-2,0,2,0,5,1s1.5-2.5-1.8-3.3C62.7,35.7,55.2,34.2,51.9,36.5z"/>
	<path id="core" class="st2" d="M51.7,36.7c0,0,2,1,5,1s3-2,3-2S57.7,34.7,51.7,36.7z"/>
</g>
</svg>
