<?xml version="1.0" encoding="utf-8"?>
<!-- Generator: Adobe Illustrator 22.0.1, SVG Export Plug-In . SVG Version: 6.00 Build 0)  -->
<svg version="1.1" id="watermelon_1_" xmlns="http://www.w3.org/2000/svg" xmlns:xlink="http://www.w3.org/1999/xlink" x="0px"
	 y="0px" viewBox="0 0 116.7 124.9" style="enable-background:new 0 0 116.7 124.9;" xml:space="preserve">
<style type="text/css">
	.st0{fill:#FF3E5A;stroke:#ED006C;stroke-width:0.5;stroke-miterlimit:10;}
	.st1{fill:#044700;stroke:#032301;stroke-width:0.5;stroke-miterlimit:10;}
	.st2{fill:#FFFAB6;stroke:#F5F967;stroke-width:0.5;stroke-miterlimit:10;}
</style>
<g id="main-watermelon">
	<path id="flesh_1_" class="st0" d="M41.5,42c0,0-9,19.8-2,34.6s35,15.8,36,13.9c1-2,15-46.5,15-46.5L41.5,42z"/>
	<path id="shell" class="st1" d="M41.5,42.5h1.8c0,0-5.8,18-1.8,32C45.6,88.7,76,90,76,90l-0.5,1.5c0,0-22.2,4.4-36-14
		C30.5,65.5,41.5,42.5,41.5,42.5z"/>
	<path id="rind" class="st2" d="M43.6,42.5h1.8c0,0-5.9,17.3-1.8,30.7c4.2,13.6,32.9,15.3,32.9,15.3l-1,1c0,0-31-2-33.9-13.4
		C36.9,57.6,43.6,42.5,43.6,42.5z"/>
</g>
<g id="seeds">
	<ellipse id="seed_4_" cx="60.5" cy="52" rx="4" ry="1.5"/>
	<ellipse id="seed_3_" transform="matrix(0.8246 -0.5657 0.5657 0.8246 -21.8495 45.529)" cx="62.5" cy="58" rx="4" ry="1.5"/>
	<ellipse id="seed_2_" transform="matrix(0.7494 -0.6622 0.6622 0.7494 -25.0469 59.8274)" cx="66.5" cy="63" rx="4" ry="1.5"/>
	<ellipse id="seed_1_" transform="matrix(0.3793 -0.9253 0.9253 0.3793 -18.5339 108.3637)" cx="71.5" cy="68" rx="4" ry="1.5"/>
</g>
</svg>
