<?xml version="1.0" encoding="utf-8"?>
<!-- Generator: Adobe Illustrator 22.0.1, SVG Export Plug-In . SVG Version: 6.00 Build 0)  -->
<svg version="1.1" id="watermelon_1_" xmlns="http://www.w3.org/2000/svg" xmlns:xlink="http://www.w3.org/1999/xlink" x="0px"
	 y="0px" viewBox="0 0 65.7 65.9" style="enable-background:new 0 0 65.7 65.9;" xml:space="preserve">
<style type="text/css">
	.st0{fill:#FF3E5A;stroke:#ED006C;stroke-width:0.5;stroke-miterlimit:10;}
	.st1{fill:#044700;stroke:#032301;stroke-width:0.5;stroke-miterlimit:10;}
	.st2{fill:#FFFAB6;stroke:#F5F967;stroke-width:0.5;stroke-miterlimit:10;}
</style>
<g id="main-watermelon">
	<path id="flesh_1_" class="st0" d="M12.5,10c0,0-9,19.8-2,34.6s35,15.8,36,13.9c1-2,15-46.5,15-46.5L12.5,10z"/>
	<path id="shell" class="st1" d="M12.5,10.5h1.8c0,0-5.8,18-1.8,32C16.6,56.7,47,58,47,58l-0.5,1.5c0,0-22.2,4.4-36-14
		C1.5,33.5,12.5,10.5,12.5,10.5z"/>
	<path id="rind" class="st2" d="M14.6,10.5h1.8c0,0-5.9,17.3-1.8,30.7c4.2,13.6,32.9,15.3,32.9,15.3l-1,1c0,0-31-2-33.9-13.4
		C7.9,25.6,14.6,10.5,14.6,10.5z"/>
</g>
<g id="seeds">
	<ellipse id="seed_4_" cx="31.5" cy="20" rx="4" ry="1.5"/>
	<ellipse id="seed_3_" transform="matrix(0.8246 -0.5657 0.5657 0.8246 -8.8327 23.5105)" cx="33.5" cy="26" rx="4" ry="1.5"/>
	<ellipse id="seed_2_" transform="matrix(0.7494 -0.6622 0.6622 0.7494 -11.1285 32.6063)" cx="37.5" cy="31" rx="4" ry="1.5"/>
	<ellipse id="seed_1_" transform="matrix(0.3793 -0.9253 0.9253 0.3793 -6.9232 61.674)" cx="42.5" cy="36" rx="4" ry="1.5"/>
</g>
</svg>
